<?xml version="1.0" standalone="no"?>
<!DOCTYPE svg PUBLIC "-//W3C//DTD SVG 20010904//EN"
 "http://www.w3.org/TR/2001/REC-SVG-20010904/DTD/svg10.dtd">
<svg version="1.0" xmlns="http://www.w3.org/2000/svg"
 width="450.000000pt" height="450.000000pt" viewBox="0 0 450.000000 450.000000"
 preserveAspectRatio="xMidYMid meet">
<metadata>
Created by potrace 1.11, written by Peter Selinger 2001-2013
</metadata>
<g transform="translate(0.000000,450.000000) scale(0.100000,-0.100000)"
fill="#000000" stroke="none">
<path d="M2225 3643 c-197 -312 -519 -480 -808 -422 -55 11 -55 12 -50 43 6
38 -31 90 -72 100 -32 8 -90 -16 -105 -44 -16 -30 -47 -209 -60 -345 -13 -141
-13 -458 0 -600 24 -250 101 -529 203 -732 31 -61 34 -73 22 -83 -8 -7 -15
-20 -15 -29 0 -9 -11 7 -24 35 -26 57 -67 94 -102 94 -25 0 -34 25 -11 33 20
7 -7 42 -32 41 -19 -1 -21 5 -21 52 0 124 -46 240 -135 344 -51 60 -106 143
-74 113 22 -21 48 -15 64 17 20 38 19 59 -5 114 -15 37 -26 48 -50 52 -28 6
-30 10 -30 50 0 51 -14 85 -42 103 -17 11 -23 10 -36 -3 -11 -10 -12 -19 -5
-28 5 -7 6 -26 3 -43 -10 -48 -24 92 -15 157 12 90 46 149 66 117 13 -21 11
-39 -6 -39 -20 0 -30 -46 -15 -65 7 -8 23 -15 36 -15 63 0 74 129 16 181 l-31
28 21 58 c38 110 34 206 -12 248 -39 35 -92 -34 -56 -74 9 -10 13 -20 10 -23
-3 -4 1 -17 10 -30 14 -22 14 -30 1 -82 -22 -84 -31 -97 -40 -58 -9 41 -37 58
-59 36 -20 -19 -20 -24 -1 -51 13 -19 13 -28 -6 -88 -11 -37 -21 -84 -22 -104
-1 -21 -9 -41 -19 -49 -24 -18 -23 -62 1 -69 14 -4 24 -24 38 -83 l19 -78 -37
5 c-30 4 -39 1 -53 -18 -19 -27 -20 -58 -5 -93 14 -30 37 -40 55 -25 20 16 17
29 -5 29 -10 0 -22 8 -25 17 -4 10 -4 14 0 10 4 -4 13 -2 21 5 18 14 30 2 106
-108 l56 -82 -34 -4 c-27 -3 -35 0 -39 15 -3 13 -12 18 -28 15 -18 -2 -24 -10
-26 -35 -3 -27 4 -40 43 -77 25 -25 55 -48 65 -51 16 -5 20 -15 20 -46 0 -85
61 -137 105 -89 20 22 14 70 -9 70 -17 0 -31 49 -17 63 18 18 57 -9 80 -55 26
-54 29 -149 6 -168 -21 -17 -29 -6 -14 18 10 17 10 23 0 36 -8 9 -19 16 -26
16 -21 0 -55 -50 -55 -79 l0 -25 -16 22 c-9 13 -26 22 -40 22 -68 0 -107 -67
-102 -171 2 -38 1 -69 -2 -69 -3 0 -14 29 -24 65 -17 60 -17 65 -2 81 21 20
17 53 -6 68 -14 8 -22 6 -40 -12 -34 -33 -33 -147 1 -216 44 -88 143 -159 199
-142 15 5 17 0 13 -40 -2 -25 2 -51 8 -57 6 -6 11 -24 11 -40 0 -37 27 -94 54
-112 29 -21 52 -19 78 7 l21 21 26 -32 c60 -73 141 -94 179 -46 24 30 62 34
62 6 0 -31 28 -53 51 -41 14 8 19 7 19 -3 0 -8 8 -21 18 -30 34 -31 82 -15 82
26 0 14 -5 17 -19 12 -25 -8 -34 9 -27 50 8 43 33 53 46 19 7 -19 15 -24 29
-19 10 3 24 -1 31 -10 17 -21 43 -19 64 4 17 19 20 18 95 -44 114 -91 182
-136 306 -198 166 -83 179 -85 262 -53 150 60 356 187 449 278 l42 40 21 -21
c26 -26 45 -27 71 -1 11 11 20 16 20 10 0 -19 28 -10 33 10 7 28 35 25 43 -4
10 -41 1 -61 -25 -58 -18 3 -22 -1 -19 -19 7 -49 76 -51 101 -2 9 16 17 22 21
14 12 -19 46 6 46 34 0 34 35 33 66 0 43 -47 121 -26 179 48 l28 35 22 -27
c20 -22 27 -24 51 -16 37 13 71 65 80 121 3 24 11 44 16 44 7 0 9 19 6 49 -4
36 -2 48 8 44 24 -9 96 19 132 52 54 48 86 117 90 196 3 48 0 75 -12 97 -19
37 -50 42 -66 12 -9 -17 -7 -28 9 -54 l20 -32 -22 -55 -22 -54 -1 70 c0 102
-39 165 -101 165 -29 0 -36 -5 -48 -32 l-14 -33 -1 43 c0 64 -49 104 -80 67
-10 -13 -10 -19 4 -34 12 -14 14 -21 6 -26 -30 -19 -49 64 -31 132 15 55 57
105 85 101 11 -2 20 -6 19 -10 -2 -5 -3 -19 -3 -32 0 -15 -7 -26 -20 -29 -14
-4 -20 -14 -20 -35 0 -37 22 -56 55 -48 34 9 58 49 59 99 1 38 5 44 40 66 72
44 110 107 85 137 -17 20 -40 17 -46 -7 -4 -12 -11 -18 -20 -15 -8 3 -25 6
-39 6 -23 0 -22 2 20 58 23 31 56 76 71 100 30 45 45 51 65 26 11 -13 10 -16
-9 -21 -26 -7 -25 -36 1 -41 25 -5 60 56 52 88 -10 42 -35 62 -72 58 -30 -4
-33 -2 -28 16 3 12 11 45 18 75 8 37 18 55 30 59 34 8 34 66 0 77 -12 3 -17
17 -17 48 0 23 -9 70 -19 105 -16 53 -17 66 -6 86 16 30 7 56 -18 56 -25 0
-39 -18 -44 -55 -3 -28 -5 -26 -26 28 -27 71 -28 106 -2 152 25 44 25 77 1 99
-68 62 -108 -108 -57 -249 17 -48 20 -65 10 -65 -20 0 -52 -47 -59 -89 -4 -25
-1 -51 9 -75 14 -34 19 -37 48 -34 29 3 33 7 36 36 3 27 -1 35 -17 39 -25 6
-26 13 -7 38 13 18 14 17 30 -7 28 -42 36 -88 35 -193 0 -75 -3 -94 -10 -76
-5 14 -7 37 -4 52 8 36 -17 45 -50 16 -20 -17 -27 -35 -32 -79 -5 -45 -9 -58
-23 -58 -52 0 -91 -122 -55 -176 12 -19 23 -25 40 -21 21 3 23 1 15 -14 -6
-10 -35 -46 -65 -81 -31 -35 -69 -90 -85 -123 -32 -63 -60 -174 -60 -237 0
-31 -4 -38 -20 -38 -26 0 -36 -25 -22 -56 11 -22 10 -24 -18 -24 -39 0 -97
-57 -106 -105 l-6 -35 -20 26 -21 26 46 96 c91 197 137 347 179 587 19 114 22
166 22 415 0 245 -3 305 -22 425 -28 180 -36 212 -59 237 -61 68 -171 22 -161
-67 l4 -34 -61 -10 c-297 -52 -593 102 -803 417 -19 28 -38 52 -41 52 -3 0
-19 -21 -36 -47z m-1305 -1307 c0 -2 -7 -9 -15 -16 -13 -11 -14 -10 -9 4 5 14
24 23 24 12z m2704 -12 c3 -8 2 -12 -4 -9 -6 3 -10 10 -10 16 0 14 7 11 14 -7z
m-2603 -629 c40 -21 37 -37 -5 -30 -28 6 -38 2 -60 -22 l-26 -28 0 29 c0 16
-8 39 -17 50 -10 12 -11 15 -3 9 8 -7 25 -13 38 -13 22 0 24 3 18 33 -6 31 -6
32 9 9 9 -12 29 -29 46 -37z m2587 7 l26 23 -22 -29 c-12 -16 -22 -38 -22 -49
0 -20 -1 -20 -24 2 -20 19 -32 22 -60 17 -45 -9 -41 12 7 34 29 14 33 14 50
-3 18 -18 20 -18 45 5z m-2696 -115 c28 25 21 0 -7 -27 -28 -27 -31 -26 -40
15 -7 29 -7 29 11 13 17 -16 19 -16 36 -1z m2705 -4 c10 -13 16 -15 19 -5 9
19 24 14 24 -7 0 -41 -37 -34 -61 11 -12 23 -1 24 18 1z m-2643 -19 c23 -9 20
-24 -4 -24 -11 0 -20 7 -20 15 0 17 2 18 24 9z m2600 -9 c4 -11 -2 -15 -22
-15 -26 1 -26 1 -8 15 24 18 23 18 30 0z m-2384 -30 c0 -3 -5 -14 -12 -24 -26
-42 24 -70 63 -35 16 15 17 14 12 -8 -4 -12 -11 -26 -16 -29 -14 -9 -1 -38 19
-46 20 -7 74 47 74 74 0 14 3 13 16 -5 10 -15 24 -22 37 -20 18 2 22 9 20 33
-2 28 -1 29 12 11 8 -11 15 -30 15 -43 0 -38 -30 -101 -56 -118 l-25 -16 15
35 c13 32 13 36 -5 52 -28 25 -67 9 -102 -44 -16 -23 -32 -42 -38 -42 -5 0
-22 12 -39 28 -24 21 -32 38 -37 78 -6 58 11 124 33 124 8 0 14 -2 14 -5z
m2188 -39 c20 -62 0 -141 -41 -167 -18 -10 -35 -19 -39 -19 -4 0 -16 17 -27
39 -24 46 -68 69 -101 51 -22 -12 -22 -24 -3 -77 4 -13 -2 -10 -25 11 -32 30
-55 99 -45 137 7 26 30 24 29 -3 -1 -28 33 -37 50 -13 11 15 14 14 28 -14 21
-40 49 -55 76 -41 23 13 26 28 6 36 -27 10 -6 34 24 28 22 -5 31 -1 40 17 10
19 10 24 -4 34 -21 16 -20 27 2 23 10 -2 22 -20 30 -42z m-2401 -108 c-3 -7
-5 -2 -5 12 0 14 2 19 5 13 2 -7 2 -19 0 -25z m637 -147 c3 -5 -1 -14 -8 -20
-16 -13 -32 2 -21 19 8 12 22 13 29 1z m1329 -6 c8 -18 -11 -31 -25 -17 -11
11 -3 32 12 32 4 0 10 -7 13 -15z"/>
</g>
</svg>
